<svg xmlns="http://www.w3.org/2000/svg" width="256" height="256" viewBox="0 0 256 256">
  <defs>
    <linearGradient id="bg" x1="42" y1="30" x2="218" y2="226" gradientUnits="userSpaceOnUse">
      <stop offset="0" stop-color="#172033"/>
      <stop offset="1" stop-color="#0b1020"/>
    </linearGradient>
    <linearGradient id="accent" x1="74" y1="55" x2="190" y2="190" gradientUnits="userSpaceOnUse">
      <stop offset="0" stop-color="#6ee7b7"/>
      <stop offset="0.56" stop-color="#7dd3fc"/>
      <stop offset="1" stop-color="#c4b5fd"/>
    </linearGradient>
    <filter id="shadow" x="-20%" y="-20%" width="140%" height="150%">
      <feDropShadow dx="0" dy="14" stdDeviation="12" flood-color="#020617" flood-opacity=".32"/>
    </filter>
  </defs>
  <rect width="256" height="256" rx="58" fill="url(#bg)"/>
  <path d="M74 70h108c13.3 0 24 10.7 24 24v92c0 13.3-10.7 24-24 24H74c-13.3 0-24-10.7-24-24V94c0-13.3 10.7-24 24-24Z" fill="#f8fafc" filter="url(#shadow)"/>
  <path d="M91 51h74c14.4 0 26 11.6 26 26v18H65V77c0-14.4 11.6-26 26-26Z" fill="url(#accent)"/>
  <path d="M98 116h60M98 146h78M98 176h46" stroke="#172033" stroke-width="14" stroke-linecap="round"/>
  <circle cx="181" cy="177" r="29" fill="url(#accent)"/>
  <path d="m170 177 8 8 15-18" fill="none" stroke="#0b1020" stroke-width="8" stroke-linecap="round" stroke-linejoin="round"/>
</svg>
